<svg width="30" height="30" viewBox="0 0 30 30" fill="none" xmlns="http://www.w3.org/2000/svg">
<path d="M29.5 15C29.5 23.0081 23.0081 29.5 15 29.5C12.4059 29.5 9.97223 28.8192 7.86645 27.6269C7.49923 27.419 7.05418 27.3607 6.63707 27.4952L1.96985 29.0005C1.60635 29.1178 1.25093 28.8007 1.32616 28.4262L2.4225 22.969C2.49488 22.6087 2.43025 22.2422 2.26063 21.9312C1.1381 19.8725 0.5 17.5115 0.5 15C0.5 6.99187 6.99187 0.5 15 0.5C23.0081 0.5 29.5 6.99187 29.5 15Z" stroke="black" stroke-linejoin="round"/>
<path d="M19.5525 23C10.203 21.6065 7.28856 14.0002 7 10.3713C7.86569 6.8875 10.0299 6.59718 11.3284 7.32297C12.1941 7.87095 12.627 8.74189 13.0598 10.3713C13.3822 11.5848 13.3484 12.2583 13.0598 12.5486L12.1941 13.4196C12.1941 15.8582 15.6569 17.6292 17.3882 18.2098C17.3882 18.0646 17.648 17.513 18.6868 16.4679C19.9853 15.1615 23.4481 18.2098 23.8809 18.6453C24.2272 18.9936 23.7366 20.242 23.4481 20.8226C22.7267 21.5484 20.9376 23 19.5525 23Z" stroke="black" stroke-linejoin="round"/>
</svg>
