<svg width="17" height="26" viewBox="0 0 17 26" fill="none" xmlns="http://www.w3.org/2000/svg">
<path d="M16.1667 8.33333C16.1667 9.37411 15.6843 10.9712 14.9032 12.8428C14.1311 14.6927 13.0983 16.7405 12.0605 18.6542C11.0235 20.5663 9.98586 22.3363 9.20714 23.6288C8.85447 24.2141 8.55514 24.7011 8.33333 25.0586C8.11153 24.7011 7.8122 24.2141 7.45952 23.6288C6.68081 22.3363 5.64318 20.5663 4.60619 18.6542C3.56834 16.7405 2.53553 14.6927 1.76351 12.8428C0.982409 10.9712 0.5 9.37411 0.5 8.33333C0.5 4.0071 4.0071 0.5 8.33333 0.5C12.6596 0.5 16.1667 4.0071 16.1667 8.33333Z" stroke="#060606"/>
<path d="M12.1667 8C12.1667 9.89607 10.4889 11.5 8.33333 11.5C6.17781 11.5 4.5 9.89607 4.5 8C4.5 6.10393 6.17781 4.5 8.33333 4.5C10.4889 4.5 12.1667 6.10393 12.1667 8Z" stroke="#060606"/>
</svg>
