<svg xmlns="http://www.w3.org/2000/svg" viewBox="0 0 114.48 138.47"><defs><style>.cls-1,.cls-2{fill:#fff;}.cls-2{fill-rule:evenodd;}</style></defs><g id="Слой_2" data-name="Слой 2"><g id="иконки"><g id="youtube"><path class="cls-1" d="M95.58,90.92q-3.47,0-3.47,5.3v3.53H99V96.22C99,92.69,97.87,90.92,95.58,90.92Z"/><path class="cls-1" d="M112.5,71.51a14.46,14.46,0,0,0-12.38-11.25c-14.19-1.58-28.56-1.59-42.86-1.58s-28.68,0-42.87,1.58A14.45,14.45,0,0,0,2,71.51C0,80.18,0,89.65,0,98.57S0,117,2,125.64a14.46,14.46,0,0,0,12.37,11.24c14.2,1.59,28.57,1.6,42.87,1.59s28.68,0,42.87-1.59a14.46,14.46,0,0,0,12.37-11.24c2-8.67,2-18.14,2-27.07S114.49,80.18,112.5,71.51Zm-79.85,7.8H24.37v44h-7.7v-44H8.53V72.1H32.65Zm20.91,44H46.63v-4.17c-2.75,3.16-5.36,4.7-7.9,4.7-2.23,0-3.77-.91-4.46-2.84a19.45,19.45,0,0,1-.61-5.68V85.16h6.92v28.11a22.58,22.58,0,0,0,.06,2.69c.17,1.07.69,1.62,1.62,1.62,1.39,0,2.84-1.07,4.37-3.24V85.16h6.93Zm26.28-11.46a30.68,30.68,0,0,1-.7,7.7c-.92,2.83-2.78,4.29-5.53,4.29-2.46,0-4.84-1.37-7.15-4.23v3.7H59.54V72.1h6.92V88.83c2.23-2.75,4.61-4.14,7.15-4.14,2.75,0,4.61,1.45,5.53,4.31a29.58,29.58,0,0,1,.7,7.68ZM106,105.51H92.11v6.77c0,3.53,1.16,5.3,3.54,5.3,1.7,0,2.69-.93,3.09-2.78a45.68,45.68,0,0,0,.15-4.69H106v1c0,2.22-.09,3.76-.15,4.45a9.84,9.84,0,0,1-1.62,4.15,9.57,9.57,0,0,1-8.36,4.14A9.94,9.94,0,0,1,87.44,120C86,118,85.22,115,85.22,111V97.6c0-4.08.67-7.06,2.14-9a9.82,9.82,0,0,1,8.29-3.92,9.6,9.6,0,0,1,8.16,3.92c1.45,1.93,2.14,4.91,2.14,9Z"/><path class="cls-1" d="M69.91,90.92a5,5,0,0,0-3.45,1.68v23.27a4.94,4.94,0,0,0,3.45,1.71c2,0,3-1.71,3-5.15V96.13C72.92,92.69,71.9,90.92,69.91,90.92Z"/><path class="cls-2" d="M45.26,0H37.42L32.14,20.32,26.64,0H18.48c1.63,4.8,3.34,9.62,5,14.42a128.31,128.31,0,0,1,4.74,16.37v21h7.75v-21ZM66,39.27V25.76c0-4.12-.71-7.14-2.17-9.09a9.53,9.53,0,0,0-8.15-4,9.54,9.54,0,0,0-8.14,4c-1.48,1.95-2.19,5-2.19,9.09V39.27c0,4.09.71,7.13,2.19,9.07a9.53,9.53,0,0,0,8.14,3.94,9.52,9.52,0,0,0,8.15-3.94C65.26,46.4,66,43.36,66,39.27Zm-7,1.31c0,3.57-1.08,5.35-3.33,5.35s-3.34-1.78-3.34-5.35V24.36c0-3.57,1.08-5.35,3.34-5.35S59,20.79,59,24.36ZM91.81,51.75V13.19h-7V42.66c-1.54,2.19-3,3.27-4.41,3.27-.94,0-1.48-.55-1.64-1.63a17.3,17.3,0,0,1-.08-2.72V13.19h-7V43.68a19.4,19.4,0,0,0,.62,5.74c.7,1.95,2.25,2.86,4.5,2.86,2.55,0,5.2-1.55,8-4.74v4.21Z"/></g></g></g></svg>