<svg xmlns="http://www.w3.org/2000/svg" viewBox="0 0 130.12 130.12"><defs><style>.cls-1{fill:#fff;}</style></defs><g id="Слой_2" data-name="Слой 2"><g id="иконки"><g id="instagram"><path class="cls-1" d="M65.06,11.72c17.37,0,19.43.07,26.29.38a36,36,0,0,1,12.08,2.24,20,20,0,0,1,7.48,4.87,20.12,20.12,0,0,1,4.87,7.48A36,36,0,0,1,118,38.77c.31,6.86.38,8.92.38,26.29s-.07,19.43-.38,26.29a36,36,0,0,1-2.24,12.08,21.58,21.58,0,0,1-12.35,12.35A36,36,0,0,1,91.35,118c-6.86.31-8.92.38-26.29.38s-19.43-.07-26.29-.38a36,36,0,0,1-12.08-2.24,20.12,20.12,0,0,1-7.48-4.87,20,20,0,0,1-4.87-7.48A36,36,0,0,1,12.1,91.35c-.31-6.86-.38-8.92-.38-26.29s.07-19.43.38-26.29a36,36,0,0,1,2.24-12.08,20.12,20.12,0,0,1,4.87-7.48,20.12,20.12,0,0,1,7.48-4.87A36,36,0,0,1,38.77,12.1c6.86-.31,8.92-.38,26.29-.38M65.06,0C47.39,0,45.18.07,38.24.39a47.83,47.83,0,0,0-15.8,3,31.89,31.89,0,0,0-11.52,7.5,31.89,31.89,0,0,0-7.5,11.52,47.83,47.83,0,0,0-3,15.8C.07,45.18,0,47.39,0,65.06S.07,85,.39,91.89a47.81,47.81,0,0,0,3,15.79,31.72,31.72,0,0,0,7.5,11.52,32,32,0,0,0,11.52,7.51,48.11,48.11,0,0,0,15.8,3c6.94.32,9.15.39,26.82.39s19.89-.07,26.83-.39a48.1,48.1,0,0,0,15.79-3,33.35,33.35,0,0,0,19-19,48.1,48.1,0,0,0,3-15.79c.32-6.94.39-9.16.39-26.83s-.07-19.88-.39-26.82a48.11,48.11,0,0,0-3-15.8,32,32,0,0,0-7.51-11.52,31.72,31.72,0,0,0-11.52-7.5,47.81,47.81,0,0,0-15.79-3C85,.07,82.73,0,65.06,0Z"/><path class="cls-1" d="M65.06,31.65A33.41,33.41,0,1,0,98.47,65.06,33.41,33.41,0,0,0,65.06,31.65Zm0,55.1A21.69,21.69,0,1,1,86.75,65.06,21.69,21.69,0,0,1,65.06,86.75Z"/><circle class="cls-1" cx="99.79" cy="30.33" r="7.81"/></g></g></g></svg>