<svg xmlns="http://www.w3.org/2000/svg" viewBox="0 0 80.06 138.21"><defs><style>.cls-1{fill:#fff;}</style></defs><g id="Слой_2" data-name="Слой 2"><g id="иконки"><g id="ok"><path class="cls-1" d="M40,71.33A35.67,35.67,0,1,0,4.36,35.67,35.69,35.69,0,0,0,40,71.33ZM40,20.9A14.77,14.77,0,1,1,25.26,35.67,14.79,14.79,0,0,1,40,20.9Z"/><path class="cls-1" d="M54.46,100.43a66.81,66.81,0,0,0,20.72-8.58A10.45,10.45,0,0,0,64,74.16a45.31,45.31,0,0,1-48,0A10.45,10.45,0,0,0,4.88,91.85a66.75,66.75,0,0,0,20.71,8.58L5.65,120.37a10.45,10.45,0,0,0,14.79,14.78L40,115.55l19.6,19.6A10.45,10.45,0,0,0,74.4,120.37Z"/></g></g></g></svg>