<svg width="29" height="27" viewBox="0 0 29 27" fill="none" xmlns="http://www.w3.org/2000/svg">
<path d="M20.9363 26C6.08719 23.8226 1.45831 11.9378 1 6.26762C2.37492 0.824224 5.8122 0.370589 7.87458 1.50463C9.24949 2.36085 9.93695 3.72171 10.6244 6.26762C11.1364 8.16372 11.0827 9.21614 10.6244 9.66976L9.24949 11.0306C9.24949 14.841 14.7492 17.6081 17.499 18.5153C17.499 18.2885 17.9115 17.4266 19.5614 15.7936C21.6237 13.7523 27.1234 18.5153 27.8108 19.1957C28.3608 19.7401 27.5817 21.6906 27.1234 22.5979C25.9776 23.7319 23.1361 26 20.9363 26Z" stroke="black" stroke-linejoin="round"/>
</svg>
